<svg width="1012" height="598" viewBox="0 0 1012 598" fill="none" xmlns="http://www.w3.org/2000/svg">
<rect width="1012" height="598" fill="#1E1E1E"/>
<rect width="1012" height="598" fill="#D9D9D9"/>
<path d="M312.409 332V320.364H319.432V321.614H313.818V325.545H319.068V326.795H313.818V330.75H319.523V332H312.409ZM321.79 332V323.273H323.085V324.636H323.199C323.381 324.17 323.674 323.809 324.08 323.551C324.485 323.29 324.972 323.159 325.54 323.159C326.116 323.159 326.595 323.29 326.977 323.551C327.364 323.809 327.665 324.17 327.881 324.636H327.972C328.195 324.186 328.53 323.828 328.977 323.562C329.424 323.294 329.96 323.159 330.585 323.159C331.366 323.159 332.004 323.403 332.5 323.892C332.996 324.377 333.244 325.133 333.244 326.159V332H331.903V326.159C331.903 325.515 331.727 325.055 331.375 324.778C331.023 324.502 330.608 324.364 330.131 324.364C329.517 324.364 329.042 324.549 328.705 324.92C328.367 325.288 328.199 325.754 328.199 326.318V332H326.835V326.023C326.835 325.527 326.674 325.127 326.352 324.824C326.03 324.517 325.616 324.364 325.108 324.364C324.759 324.364 324.434 324.456 324.131 324.642C323.831 324.828 323.589 325.085 323.403 325.415C323.222 325.741 323.131 326.117 323.131 326.545V332H321.79ZM338.264 332.205C337.711 332.205 337.209 332.1 336.759 331.892C336.308 331.68 335.95 331.375 335.685 330.977C335.42 330.576 335.287 330.091 335.287 329.523C335.287 329.023 335.385 328.617 335.582 328.307C335.779 327.992 336.043 327.746 336.372 327.568C336.702 327.39 337.065 327.258 337.463 327.17C337.865 327.08 338.268 327.008 338.673 326.955C339.204 326.886 339.634 326.835 339.963 326.801C340.296 326.763 340.539 326.701 340.69 326.614C340.846 326.527 340.923 326.375 340.923 326.159V326.114C340.923 325.553 340.77 325.117 340.463 324.807C340.16 324.496 339.7 324.341 339.082 324.341C338.442 324.341 337.94 324.481 337.577 324.761C337.213 325.042 336.957 325.341 336.81 325.659L335.537 325.205C335.764 324.674 336.067 324.261 336.446 323.966C336.829 323.667 337.245 323.458 337.696 323.341C338.151 323.22 338.598 323.159 339.037 323.159C339.317 323.159 339.639 323.193 340.003 323.261C340.37 323.326 340.724 323.46 341.065 323.665C341.41 323.869 341.696 324.178 341.923 324.591C342.151 325.004 342.264 325.557 342.264 326.25V332H340.923V330.818H340.855C340.764 331.008 340.613 331.21 340.401 331.426C340.188 331.642 339.906 331.826 339.554 331.977C339.202 332.129 338.772 332.205 338.264 332.205ZM338.469 331C338.999 331 339.446 330.896 339.81 330.688C340.177 330.479 340.454 330.21 340.639 329.881C340.829 329.551 340.923 329.205 340.923 328.841V327.614C340.866 327.682 340.741 327.744 340.548 327.801C340.359 327.854 340.139 327.902 339.889 327.943C339.643 327.981 339.402 328.015 339.168 328.045C338.937 328.072 338.749 328.095 338.605 328.114C338.257 328.159 337.931 328.233 337.628 328.335C337.329 328.434 337.086 328.583 336.901 328.784C336.719 328.981 336.628 329.25 336.628 329.591C336.628 330.057 336.8 330.409 337.145 330.648C337.493 330.883 337.935 331 338.469 331ZM344.712 332V323.273H346.053V332H344.712ZM345.393 321.818C345.132 321.818 344.907 321.729 344.717 321.551C344.532 321.373 344.439 321.159 344.439 320.909C344.439 320.659 344.532 320.445 344.717 320.267C344.907 320.089 345.132 320 345.393 320C345.655 320 345.878 320.089 346.064 320.267C346.253 320.445 346.348 320.659 346.348 320.909C346.348 321.159 346.253 321.373 346.064 321.551C345.878 321.729 345.655 321.818 345.393 321.818ZM349.849 320.364V332H348.509V320.364H349.849Z" fill="black"/>
<path d="M320.045 382.364H321.455V390.068C321.455 390.864 321.267 391.574 320.892 392.199C320.521 392.82 319.996 393.311 319.318 393.67C318.64 394.027 317.845 394.205 316.932 394.205C316.019 394.205 315.223 394.027 314.545 393.67C313.867 393.311 313.341 392.82 312.966 392.199C312.595 391.574 312.409 390.864 312.409 390.068V382.364H313.818V389.955C313.818 390.523 313.943 391.028 314.193 391.472C314.443 391.911 314.799 392.258 315.261 392.511C315.727 392.761 316.284 392.886 316.932 392.886C317.58 392.886 318.136 392.761 318.602 392.511C319.068 392.258 319.424 391.911 319.67 391.472C319.92 391.028 320.045 390.523 320.045 389.955V382.364ZM330.268 387.227L329.064 387.568C328.988 387.367 328.876 387.172 328.729 386.983C328.585 386.79 328.388 386.631 328.138 386.506C327.888 386.381 327.568 386.318 327.178 386.318C326.643 386.318 326.198 386.441 325.842 386.688C325.49 386.93 325.314 387.239 325.314 387.614C325.314 387.947 325.435 388.21 325.678 388.403C325.92 388.597 326.299 388.758 326.814 388.886L328.109 389.205C328.89 389.394 329.471 389.684 329.854 390.074C330.236 390.46 330.428 390.958 330.428 391.568C330.428 392.068 330.284 392.515 329.996 392.909C329.712 393.303 329.314 393.614 328.803 393.841C328.291 394.068 327.696 394.182 327.018 394.182C326.128 394.182 325.392 393.989 324.808 393.602C324.225 393.216 323.856 392.652 323.7 391.909L324.973 391.591C325.094 392.061 325.323 392.413 325.661 392.648C326.001 392.883 326.446 393 326.996 393C327.621 393 328.117 392.867 328.484 392.602C328.856 392.333 329.041 392.011 329.041 391.636C329.041 391.333 328.935 391.08 328.723 390.875C328.511 390.667 328.185 390.511 327.746 390.409L326.291 390.068C325.492 389.879 324.905 389.585 324.53 389.188C324.159 388.786 323.973 388.284 323.973 387.682C323.973 387.189 324.111 386.754 324.388 386.375C324.668 385.996 325.049 385.699 325.53 385.483C326.015 385.267 326.564 385.159 327.178 385.159C328.041 385.159 328.719 385.348 329.212 385.727C329.708 386.106 330.06 386.606 330.268 387.227ZM336.105 394.182C335.264 394.182 334.539 393.996 333.929 393.625C333.323 393.25 332.855 392.727 332.526 392.057C332.2 391.383 332.037 390.598 332.037 389.705C332.037 388.811 332.2 388.023 332.526 387.341C332.855 386.655 333.313 386.121 333.901 385.739C334.491 385.352 335.181 385.159 335.969 385.159C336.423 385.159 336.872 385.235 337.315 385.386C337.759 385.538 338.162 385.784 338.526 386.125C338.889 386.462 339.179 386.909 339.395 387.466C339.611 388.023 339.719 388.708 339.719 389.523V390.091H332.991V388.932H338.355C338.355 388.439 338.257 388 338.06 387.614C337.866 387.227 337.59 386.922 337.23 386.699C336.874 386.475 336.454 386.364 335.969 386.364C335.435 386.364 334.973 386.496 334.582 386.761C334.196 387.023 333.899 387.364 333.69 387.784C333.482 388.205 333.378 388.655 333.378 389.136V389.909C333.378 390.568 333.491 391.127 333.719 391.585C333.95 392.04 334.27 392.386 334.679 392.625C335.088 392.86 335.563 392.977 336.105 392.977C336.457 392.977 336.776 392.928 337.06 392.83C337.348 392.727 337.596 392.576 337.804 392.375C338.012 392.17 338.173 391.917 338.287 391.614L339.582 391.977C339.446 392.417 339.217 392.803 338.895 393.136C338.573 393.466 338.175 393.723 337.702 393.909C337.228 394.091 336.696 394.182 336.105 394.182ZM341.759 394V385.273H343.054V386.591H343.145C343.304 386.159 343.592 385.809 344.009 385.54C344.425 385.271 344.895 385.136 345.418 385.136C345.516 385.136 345.639 385.138 345.787 385.142C345.935 385.146 346.046 385.152 346.122 385.159V386.523C346.077 386.511 345.973 386.494 345.81 386.472C345.651 386.445 345.482 386.432 345.304 386.432C344.88 386.432 344.501 386.521 344.168 386.699C343.838 386.873 343.577 387.116 343.384 387.426C343.194 387.733 343.099 388.083 343.099 388.477V394H341.759ZM349.053 388.75V394H347.712V385.273H349.007V386.636H349.121C349.325 386.193 349.636 385.837 350.053 385.568C350.469 385.295 351.007 385.159 351.666 385.159C352.257 385.159 352.774 385.28 353.217 385.523C353.661 385.761 354.005 386.125 354.251 386.614C354.498 387.098 354.621 387.712 354.621 388.455V394H353.28V388.545C353.28 387.86 353.102 387.326 352.746 386.943C352.39 386.557 351.901 386.364 351.28 386.364C350.852 386.364 350.469 386.456 350.132 386.642C349.799 386.828 349.536 387.098 349.342 387.455C349.149 387.811 349.053 388.242 349.053 388.75ZM359.639 394.205C359.086 394.205 358.584 394.1 358.134 393.892C357.683 393.68 357.325 393.375 357.06 392.977C356.795 392.576 356.662 392.091 356.662 391.523C356.662 391.023 356.76 390.617 356.957 390.307C357.154 389.992 357.418 389.746 357.747 389.568C358.077 389.39 358.44 389.258 358.838 389.17C359.24 389.08 359.643 389.008 360.048 388.955C360.579 388.886 361.009 388.835 361.338 388.801C361.671 388.763 361.914 388.701 362.065 388.614C362.221 388.527 362.298 388.375 362.298 388.159V388.114C362.298 387.553 362.145 387.117 361.838 386.807C361.535 386.496 361.075 386.341 360.457 386.341C359.817 386.341 359.315 386.481 358.952 386.761C358.588 387.042 358.332 387.341 358.185 387.659L356.912 387.205C357.139 386.674 357.442 386.261 357.821 385.966C358.204 385.667 358.62 385.458 359.071 385.341C359.526 385.22 359.973 385.159 360.412 385.159C360.692 385.159 361.014 385.193 361.378 385.261C361.745 385.326 362.099 385.46 362.44 385.665C362.785 385.869 363.071 386.178 363.298 386.591C363.526 387.004 363.639 387.557 363.639 388.25V394H362.298V392.818H362.23C362.139 393.008 361.988 393.21 361.776 393.426C361.563 393.642 361.281 393.826 360.929 393.977C360.577 394.129 360.147 394.205 359.639 394.205ZM359.844 393C360.374 393 360.821 392.896 361.185 392.688C361.552 392.479 361.829 392.21 362.014 391.881C362.204 391.551 362.298 391.205 362.298 390.841V389.614C362.241 389.682 362.116 389.744 361.923 389.801C361.734 389.854 361.514 389.902 361.264 389.943C361.018 389.981 360.777 390.015 360.543 390.045C360.312 390.072 360.124 390.095 359.98 390.114C359.632 390.159 359.306 390.233 359.003 390.335C358.704 390.434 358.461 390.583 358.276 390.784C358.094 390.981 358.003 391.25 358.003 391.591C358.003 392.057 358.175 392.409 358.52 392.648C358.868 392.883 359.31 393 359.844 393ZM366.087 394V385.273H367.382V386.636H367.496C367.678 386.17 367.971 385.809 368.376 385.551C368.782 385.29 369.268 385.159 369.837 385.159C370.412 385.159 370.892 385.29 371.274 385.551C371.661 385.809 371.962 386.17 372.178 386.636H372.268C372.492 386.186 372.827 385.828 373.274 385.562C373.721 385.294 374.257 385.159 374.882 385.159C375.662 385.159 376.301 385.403 376.797 385.892C377.293 386.377 377.541 387.133 377.541 388.159V394H376.2V388.159C376.2 387.515 376.024 387.055 375.672 386.778C375.32 386.502 374.905 386.364 374.428 386.364C373.814 386.364 373.339 386.549 373.001 386.92C372.664 387.288 372.496 387.754 372.496 388.318V394H371.132V388.023C371.132 387.527 370.971 387.127 370.649 386.824C370.327 386.517 369.912 386.364 369.405 386.364C369.056 386.364 368.731 386.456 368.428 386.642C368.128 386.828 367.886 387.085 367.7 387.415C367.518 387.741 367.428 388.117 367.428 388.545V394H366.087ZM383.652 394.182C382.811 394.182 382.086 393.996 381.476 393.625C380.87 393.25 380.402 392.727 380.072 392.057C379.747 391.383 379.584 390.598 379.584 389.705C379.584 388.811 379.747 388.023 380.072 387.341C380.402 386.655 380.86 386.121 381.447 385.739C382.038 385.352 382.728 385.159 383.516 385.159C383.97 385.159 384.419 385.235 384.862 385.386C385.305 385.538 385.709 385.784 386.072 386.125C386.436 386.462 386.726 386.909 386.942 387.466C387.158 388.023 387.266 388.708 387.266 389.523V390.091H380.538V388.932H385.902C385.902 388.439 385.804 388 385.607 387.614C385.413 387.227 385.137 386.922 384.777 386.699C384.421 386.475 384 386.364 383.516 386.364C382.982 386.364 382.519 386.496 382.129 386.761C381.743 387.023 381.446 387.364 381.237 387.784C381.029 388.205 380.925 388.655 380.925 389.136V389.909C380.925 390.568 381.038 391.127 381.266 391.585C381.497 392.04 381.817 392.386 382.226 392.625C382.635 392.86 383.11 392.977 383.652 392.977C384.004 392.977 384.322 392.928 384.607 392.83C384.894 392.727 385.143 392.576 385.351 392.375C385.559 392.17 385.72 391.917 385.834 391.614L387.129 391.977C386.993 392.417 386.764 392.803 386.442 393.136C386.12 393.466 385.722 393.723 385.249 393.909C384.775 394.091 384.243 394.182 383.652 394.182Z" fill="black"/>
<path d="M311.409 442.364H312.795V451.523H312.909L319.273 442.364H320.636V454H319.227V444.864H319.114L312.773 454H311.409V442.364ZM328.047 452.182L331.092 445.273H332.365L328.592 454H327.501L323.797 445.273H325.047L328.047 452.182ZM324.615 445.273V454H323.274V445.273H324.615ZM331.479 454V445.273H332.82V454H331.479ZM340.524 454V446.5H338.206C337.683 446.5 337.272 446.621 336.973 446.864C336.674 447.106 336.524 447.439 336.524 447.864C336.524 448.28 336.659 448.608 336.928 448.847C337.2 449.085 337.573 449.205 338.047 449.205H340.865V450.455H338.047C337.456 450.455 336.946 450.35 336.518 450.142C336.09 449.934 335.761 449.636 335.53 449.25C335.299 448.86 335.183 448.398 335.183 447.864C335.183 447.326 335.304 446.864 335.547 446.477C335.789 446.091 336.136 445.794 336.587 445.585C337.041 445.377 337.581 445.273 338.206 445.273H341.797V454H340.524ZM334.706 454L337.183 449.659H338.638L336.161 454H334.706Z" fill="black"/>
<circle cx="501.5" cy="146.5" r="78.5" fill="#FFD600"/>
<rect x="413" y="305" width="303" height="37" fill="#D9D9D9"/>
<rect x="413" y="305" width="280" height="46" fill="#D0FCC5"/>
<rect x="413" y="367" width="280" height="46" fill="#D0FCC5"/>
<rect x="413" y="367" width="280" height="46" fill="#D0FCC5"/>
<rect x="413" y="429" width="280" height="46" fill="#D0FCC5"/>
<rect x="310" y="507" width="383" height="50" fill="#0E55BF"/>
<path d="M474.773 528H473.364C473.28 527.595 473.134 527.239 472.926 526.932C472.722 526.625 472.472 526.367 472.176 526.159C471.884 525.947 471.561 525.788 471.205 525.682C470.848 525.576 470.477 525.523 470.091 525.523C469.386 525.523 468.748 525.701 468.176 526.057C467.608 526.413 467.155 526.938 466.818 527.631C466.485 528.324 466.318 529.174 466.318 530.182C466.318 531.189 466.485 532.04 466.818 532.733C467.155 533.426 467.608 533.951 468.176 534.307C468.748 534.663 469.386 534.841 470.091 534.841C470.477 534.841 470.848 534.788 471.205 534.682C471.561 534.576 471.884 534.419 472.176 534.21C472.472 533.998 472.722 533.739 472.926 533.432C473.134 533.121 473.28 532.765 473.364 532.364H474.773C474.667 532.958 474.473 533.491 474.193 533.96C473.913 534.43 473.564 534.83 473.148 535.159C472.731 535.485 472.263 535.733 471.744 535.903C471.229 536.074 470.678 536.159 470.091 536.159C469.098 536.159 468.216 535.917 467.443 535.432C466.67 534.947 466.063 534.258 465.619 533.364C465.176 532.47 464.955 531.409 464.955 530.182C464.955 528.955 465.176 527.894 465.619 527C466.063 526.106 466.67 525.417 467.443 524.932C468.216 524.447 469.098 524.205 470.091 524.205C470.678 524.205 471.229 524.29 471.744 524.46C472.263 524.631 472.731 524.881 473.148 525.21C473.564 525.536 473.913 525.934 474.193 526.403C474.473 526.869 474.667 527.402 474.773 528ZM480.413 536.182C479.625 536.182 478.934 535.994 478.339 535.619C477.749 535.244 477.286 534.72 476.953 534.045C476.624 533.371 476.459 532.583 476.459 531.682C476.459 530.773 476.624 529.979 476.953 529.301C477.286 528.623 477.749 528.097 478.339 527.722C478.934 527.347 479.625 527.159 480.413 527.159C481.201 527.159 481.891 527.347 482.482 527.722C483.076 528.097 483.538 528.623 483.868 529.301C484.201 529.979 484.368 530.773 484.368 531.682C484.368 532.583 484.201 533.371 483.868 534.045C483.538 534.72 483.076 535.244 482.482 535.619C481.891 535.994 481.201 536.182 480.413 536.182ZM480.413 534.977C481.012 534.977 481.504 534.824 481.891 534.517C482.277 534.21 482.563 533.807 482.749 533.307C482.934 532.807 483.027 532.265 483.027 531.682C483.027 531.098 482.934 530.555 482.749 530.051C482.563 529.547 482.277 529.14 481.891 528.83C481.504 528.519 481.012 528.364 480.413 528.364C479.815 528.364 479.322 528.519 478.936 528.83C478.55 529.14 478.264 529.547 478.078 530.051C477.893 530.555 477.8 531.098 477.8 531.682C477.8 532.265 477.893 532.807 478.078 533.307C478.264 533.807 478.55 534.21 478.936 534.517C479.322 534.824 479.815 534.977 480.413 534.977ZM487.055 527.273L489.146 530.841L491.237 527.273H492.783L489.964 531.636L492.783 536H491.237L489.146 532.614L487.055 536H485.51L488.283 531.636L485.51 527.273H487.055ZM494.696 539.273V527.273H495.991V528.659H496.151C496.249 528.508 496.385 528.314 496.56 528.08C496.738 527.841 496.991 527.629 497.321 527.443C497.654 527.254 498.105 527.159 498.673 527.159C499.408 527.159 500.056 527.343 500.616 527.71C501.177 528.078 501.615 528.598 501.929 529.273C502.243 529.947 502.401 530.742 502.401 531.659C502.401 532.583 502.243 533.384 501.929 534.062C501.615 534.737 501.179 535.259 500.622 535.631C500.065 535.998 499.423 536.182 498.696 536.182C498.135 536.182 497.687 536.089 497.349 535.903C497.012 535.714 496.753 535.5 496.571 535.261C496.389 535.019 496.249 534.818 496.151 534.659H496.037V539.273H494.696ZM496.014 531.636C496.014 532.295 496.111 532.877 496.304 533.381C496.497 533.881 496.779 534.273 497.151 534.557C497.522 534.837 497.976 534.977 498.514 534.977C499.075 534.977 499.543 534.83 499.918 534.534C500.296 534.235 500.58 533.833 500.77 533.33C500.963 532.822 501.06 532.258 501.06 531.636C501.06 531.023 500.965 530.47 500.776 529.977C500.59 529.481 500.308 529.089 499.929 528.801C499.554 528.509 499.082 528.364 498.514 528.364C497.969 528.364 497.51 528.502 497.139 528.778C496.768 529.051 496.488 529.434 496.298 529.926C496.109 530.415 496.014 530.985 496.014 531.636ZM507.014 536.205C506.461 536.205 505.959 536.1 505.509 535.892C505.058 535.68 504.7 535.375 504.435 534.977C504.17 534.576 504.037 534.091 504.037 533.523C504.037 533.023 504.135 532.617 504.332 532.307C504.529 531.992 504.793 531.746 505.122 531.568C505.452 531.39 505.815 531.258 506.213 531.17C506.615 531.08 507.018 531.008 507.423 530.955C507.954 530.886 508.384 530.835 508.713 530.801C509.046 530.763 509.289 530.701 509.44 530.614C509.596 530.527 509.673 530.375 509.673 530.159V530.114C509.673 529.553 509.52 529.117 509.213 528.807C508.91 528.496 508.45 528.341 507.832 528.341C507.192 528.341 506.69 528.481 506.327 528.761C505.963 529.042 505.707 529.341 505.56 529.659L504.287 529.205C504.514 528.674 504.817 528.261 505.196 527.966C505.579 527.667 505.995 527.458 506.446 527.341C506.901 527.22 507.348 527.159 507.787 527.159C508.067 527.159 508.389 527.193 508.753 527.261C509.12 527.326 509.474 527.46 509.815 527.665C510.16 527.869 510.446 528.178 510.673 528.591C510.901 529.004 511.014 529.557 511.014 530.25V536H509.673V534.818H509.605C509.514 535.008 509.363 535.21 509.151 535.426C508.938 535.642 508.656 535.826 508.304 535.977C507.952 536.129 507.522 536.205 507.014 536.205ZM507.219 535C507.749 535 508.196 534.896 508.56 534.688C508.927 534.479 509.204 534.21 509.389 533.881C509.579 533.551 509.673 533.205 509.673 532.841V531.614C509.616 531.682 509.491 531.744 509.298 531.801C509.109 531.854 508.889 531.902 508.639 531.943C508.393 531.981 508.152 532.015 507.918 532.045C507.687 532.072 507.499 532.095 507.355 532.114C507.007 532.159 506.681 532.233 506.378 532.335C506.079 532.434 505.836 532.583 505.651 532.784C505.469 532.981 505.378 533.25 505.378 533.591C505.378 534.057 505.55 534.409 505.895 534.648C506.243 534.883 506.685 535 507.219 535ZM519.303 531.023V532.273H514.484V531.023H519.303ZM514.803 527.273V536H513.462V527.273H514.803ZM520.325 527.273V536H518.984V527.273H520.325ZM524.115 534.023L528.32 527.273H529.865V536H528.524V529.25L524.342 536H522.774V527.273H524.115V534.023ZM531.134 528.523V527.273H538.224V528.523H535.361V536H534.02V528.523H531.134ZM541.339 530.432H543.839C544.862 530.432 545.644 530.691 546.186 531.21C546.728 531.729 546.999 532.386 546.999 533.182C546.999 533.705 546.877 534.18 546.635 534.608C546.393 535.032 546.036 535.371 545.567 535.625C545.097 535.875 544.521 536 543.839 536H540.18V527.273H541.521V534.75H543.839C544.37 534.75 544.805 534.61 545.146 534.33C545.487 534.049 545.658 533.689 545.658 533.25C545.658 532.788 545.487 532.411 545.146 532.119C544.805 531.828 544.37 531.682 543.839 531.682H541.339V530.432Z" fill="white"/>
<rect x="587" y="186" width="111" height="32" fill="#3E7AB2"/>
<path d="M606.409 196.364H607.795V205.523H607.909L614.273 196.364H615.636V208H614.227V198.864H614.114L607.773 208H606.409V196.364ZM617.729 205.773H619.161C619.191 206.167 619.369 206.466 619.695 206.67C620.024 206.875 620.452 206.977 620.979 206.977C621.517 206.977 621.977 206.867 622.359 206.648C622.742 206.424 622.933 206.064 622.933 205.568C622.933 205.277 622.861 205.023 622.717 204.807C622.573 204.587 622.371 204.417 622.109 204.295C621.848 204.174 621.539 204.114 621.183 204.114H619.683V202.909H621.183C621.717 202.909 622.111 202.788 622.365 202.545C622.623 202.303 622.751 202 622.751 201.636C622.751 201.246 622.613 200.934 622.337 200.699C622.06 200.46 621.668 200.341 621.161 200.341C620.649 200.341 620.223 200.456 619.882 200.688C619.541 200.915 619.361 201.208 619.342 201.568H617.933C617.948 201.098 618.092 200.684 618.365 200.324C618.638 199.96 619.009 199.676 619.479 199.472C619.948 199.263 620.486 199.159 621.092 199.159C621.706 199.159 622.238 199.267 622.689 199.483C623.143 199.695 623.494 199.985 623.74 200.352C623.99 200.716 624.115 201.129 624.115 201.591C624.115 202.083 623.977 202.481 623.7 202.784C623.424 203.087 623.077 203.303 622.661 203.432V203.523C622.99 203.545 623.276 203.652 623.518 203.841C623.765 204.027 623.956 204.271 624.092 204.574C624.229 204.873 624.297 205.205 624.297 205.568C624.297 206.098 624.155 206.561 623.871 206.955C623.587 207.345 623.196 207.648 622.7 207.864C622.204 208.076 621.638 208.182 621.001 208.182C620.384 208.182 619.831 208.081 619.342 207.881C618.854 207.676 618.465 207.394 618.178 207.034C617.893 206.67 617.744 206.25 617.729 205.773ZM630.953 206.182L633.999 199.273H635.271L631.499 208H630.408L626.703 199.273H627.953L630.953 206.182ZM627.521 199.273V208H626.18V199.273H627.521ZM634.385 208V199.273H635.726V208H634.385ZM641.839 208.182C640.999 208.182 640.273 207.996 639.663 207.625C639.057 207.25 638.589 206.727 638.26 206.057C637.934 205.383 637.771 204.598 637.771 203.705C637.771 202.811 637.934 202.023 638.26 201.341C638.589 200.655 639.048 200.121 639.635 199.739C640.226 199.352 640.915 199.159 641.703 199.159C642.158 199.159 642.607 199.235 643.05 199.386C643.493 199.538 643.896 199.784 644.26 200.125C644.624 200.462 644.913 200.909 645.129 201.466C645.345 202.023 645.453 202.708 645.453 203.523V204.091H638.726V202.932H644.089C644.089 202.439 643.991 202 643.794 201.614C643.601 201.227 643.324 200.922 642.964 200.699C642.608 200.475 642.188 200.364 641.703 200.364C641.169 200.364 640.707 200.496 640.317 200.761C639.93 201.023 639.633 201.364 639.425 201.784C639.216 202.205 639.112 202.655 639.112 203.136V203.909C639.112 204.568 639.226 205.127 639.453 205.585C639.684 206.04 640.004 206.386 640.413 206.625C640.822 206.86 641.298 206.977 641.839 206.977C642.192 206.977 642.51 206.928 642.794 206.83C643.082 206.727 643.33 206.576 643.538 206.375C643.747 206.17 643.908 205.917 644.021 205.614L645.317 205.977C645.18 206.417 644.951 206.803 644.629 207.136C644.307 207.466 643.91 207.723 643.436 207.909C642.963 208.091 642.43 208.182 641.839 208.182ZM653.334 203.023V204.273H648.516V203.023H653.334ZM648.834 199.273V208H647.493V199.273H648.834ZM654.357 199.273V208H653.016V199.273H654.357ZM658.146 206.023L662.351 199.273H663.896V208H662.555V201.25L658.374 208H656.805V199.273H658.146V206.023ZM665.165 200.523V199.273H672.256V200.523H669.392V208H668.051V200.523H665.165ZM675.371 202.432H677.871C678.893 202.432 679.676 202.691 680.217 203.21C680.759 203.729 681.03 204.386 681.03 205.182C681.03 205.705 680.909 206.18 680.666 206.608C680.424 207.032 680.068 207.371 679.598 207.625C679.128 207.875 678.553 208 677.871 208H674.212V199.273H675.553V206.75H677.871C678.401 206.75 678.837 206.61 679.178 206.33C679.518 206.049 679.689 205.689 679.689 205.25C679.689 204.788 679.518 204.411 679.178 204.119C678.837 203.828 678.401 203.682 677.871 203.682H675.371V202.432Z" fill="white"/>
<path d="M420.409 327.227L419.205 327.568C419.129 327.367 419.017 327.172 418.869 326.983C418.725 326.79 418.528 326.631 418.278 326.506C418.028 326.381 417.708 326.318 417.318 326.318C416.784 326.318 416.339 326.441 415.983 326.688C415.631 326.93 415.455 327.239 415.455 327.614C415.455 327.947 415.576 328.21 415.818 328.403C416.061 328.597 416.439 328.758 416.955 328.886L418.25 329.205C419.03 329.394 419.612 329.684 419.994 330.074C420.377 330.46 420.568 330.958 420.568 331.568C420.568 332.068 420.424 332.515 420.136 332.909C419.852 333.303 419.455 333.614 418.943 333.841C418.432 334.068 417.837 334.182 417.159 334.182C416.269 334.182 415.532 333.989 414.949 333.602C414.366 333.216 413.996 332.652 413.841 331.909L415.114 331.591C415.235 332.061 415.464 332.413 415.801 332.648C416.142 332.883 416.587 333 417.136 333C417.761 333 418.258 332.867 418.625 332.602C418.996 332.333 419.182 332.011 419.182 331.636C419.182 331.333 419.076 331.08 418.864 330.875C418.652 330.667 418.326 330.511 417.886 330.409L416.432 330.068C415.633 329.879 415.045 329.585 414.67 329.188C414.299 328.786 414.114 328.284 414.114 327.682C414.114 327.189 414.252 326.754 414.528 326.375C414.809 325.996 415.189 325.699 415.67 325.483C416.155 325.267 416.705 325.159 417.318 325.159C418.182 325.159 418.86 325.348 419.352 325.727C419.848 326.106 420.201 326.606 420.409 327.227ZM423.928 322.364V334H422.587V322.364H423.928ZM428.952 334.205C428.399 334.205 427.897 334.1 427.446 333.892C426.995 333.68 426.637 333.375 426.372 332.977C426.107 332.576 425.974 332.091 425.974 331.523C425.974 331.023 426.073 330.617 426.27 330.307C426.467 329.992 426.73 329.746 427.06 329.568C427.389 329.39 427.753 329.258 428.151 329.17C428.552 329.08 428.955 329.008 429.361 328.955C429.891 328.886 430.321 328.835 430.651 328.801C430.984 328.763 431.226 328.701 431.378 328.614C431.533 328.527 431.611 328.375 431.611 328.159V328.114C431.611 327.553 431.457 327.117 431.151 326.807C430.848 326.496 430.387 326.341 429.77 326.341C429.13 326.341 428.628 326.481 428.264 326.761C427.901 327.042 427.645 327.341 427.497 327.659L426.224 327.205C426.452 326.674 426.755 326.261 427.134 325.966C427.516 325.667 427.933 325.458 428.384 325.341C428.838 325.22 429.285 325.159 429.724 325.159C430.005 325.159 430.327 325.193 430.69 325.261C431.058 325.326 431.412 325.46 431.753 325.665C432.098 325.869 432.384 326.178 432.611 326.591C432.838 327.004 432.952 327.557 432.952 328.25V334H431.611V332.818H431.543C431.452 333.008 431.3 333.21 431.088 333.426C430.876 333.642 430.594 333.826 430.241 333.977C429.889 334.129 429.459 334.205 428.952 334.205ZM429.156 333C429.687 333 430.134 332.896 430.497 332.688C430.865 332.479 431.141 332.21 431.327 331.881C431.516 331.551 431.611 331.205 431.611 330.841V329.614C431.554 329.682 431.429 329.744 431.236 329.801C431.046 329.854 430.827 329.902 430.577 329.943C430.33 329.981 430.09 330.015 429.855 330.045C429.624 330.072 429.437 330.095 429.293 330.114C428.944 330.159 428.618 330.233 428.315 330.335C428.016 330.434 427.774 330.583 427.588 330.784C427.406 330.981 427.315 331.25 427.315 331.591C427.315 332.057 427.488 332.409 427.832 332.648C428.181 332.883 428.622 333 429.156 333ZM442.223 325.273L438.996 334H437.632L434.405 325.273H435.859L438.268 332.227H438.359L440.768 325.273H442.223ZM446.295 334.205C445.742 334.205 445.241 334.1 444.79 333.892C444.339 333.68 443.981 333.375 443.716 332.977C443.451 332.576 443.318 332.091 443.318 331.523C443.318 331.023 443.417 330.617 443.614 330.307C443.811 329.992 444.074 329.746 444.403 329.568C444.733 329.39 445.097 329.258 445.494 329.17C445.896 329.08 446.299 329.008 446.705 328.955C447.235 328.886 447.665 328.835 447.994 328.801C448.328 328.763 448.57 328.701 448.722 328.614C448.877 328.527 448.955 328.375 448.955 328.159V328.114C448.955 327.553 448.801 327.117 448.494 326.807C448.191 326.496 447.731 326.341 447.114 326.341C446.473 326.341 445.972 326.481 445.608 326.761C445.244 327.042 444.989 327.341 444.841 327.659L443.568 327.205C443.795 326.674 444.098 326.261 444.477 325.966C444.86 325.667 445.277 325.458 445.727 325.341C446.182 325.22 446.629 325.159 447.068 325.159C447.348 325.159 447.67 325.193 448.034 325.261C448.402 325.326 448.756 325.46 449.097 325.665C449.441 325.869 449.727 326.178 449.955 326.591C450.182 327.004 450.295 327.557 450.295 328.25V334H448.955V332.818H448.886C448.795 333.008 448.644 333.21 448.432 333.426C448.22 333.642 447.938 333.826 447.585 333.977C447.233 334.129 446.803 334.205 446.295 334.205ZM446.5 333C447.03 333 447.477 332.896 447.841 332.688C448.208 332.479 448.485 332.21 448.67 331.881C448.86 331.551 448.955 331.205 448.955 330.841V329.614C448.898 329.682 448.773 329.744 448.58 329.801C448.39 329.854 448.17 329.902 447.92 329.943C447.674 329.981 447.434 330.015 447.199 330.045C446.968 330.072 446.78 330.095 446.636 330.114C446.288 330.159 445.962 330.233 445.659 330.335C445.36 330.434 445.117 330.583 444.932 330.784C444.75 330.981 444.659 331.25 444.659 331.591C444.659 332.057 444.831 332.409 445.176 332.648C445.525 332.883 445.966 333 446.5 333ZM458.766 334V335.25H451.493V334H458.766ZM466.159 327.227L464.955 327.568C464.879 327.367 464.767 327.172 464.619 326.983C464.475 326.79 464.278 326.631 464.028 326.506C463.778 326.381 463.458 326.318 463.068 326.318C462.534 326.318 462.089 326.441 461.733 326.688C461.381 326.93 461.205 327.239 461.205 327.614C461.205 327.947 461.326 328.21 461.568 328.403C461.811 328.597 462.189 328.758 462.705 328.886L464 329.205C464.78 329.394 465.362 329.684 465.744 330.074C466.127 330.46 466.318 330.958 466.318 331.568C466.318 332.068 466.174 332.515 465.886 332.909C465.602 333.303 465.205 333.614 464.693 333.841C464.182 334.068 463.587 334.182 462.909 334.182C462.019 334.182 461.282 333.989 460.699 333.602C460.116 333.216 459.746 332.652 459.591 331.909L460.864 331.591C460.985 332.061 461.214 332.413 461.551 332.648C461.892 332.883 462.337 333 462.886 333C463.511 333 464.008 332.867 464.375 332.602C464.746 332.333 464.932 332.011 464.932 331.636C464.932 331.333 464.826 331.08 464.614 330.875C464.402 330.667 464.076 330.511 463.636 330.409L462.182 330.068C461.383 329.879 460.795 329.585 460.42 329.188C460.049 328.786 459.864 328.284 459.864 327.682C459.864 327.189 460.002 326.754 460.278 326.375C460.559 325.996 460.939 325.699 461.42 325.483C461.905 325.267 462.455 325.159 463.068 325.159C463.932 325.159 464.61 325.348 465.102 325.727C465.598 326.106 465.951 326.606 466.159 327.227ZM469.678 328.75V334H468.337V322.364H469.678V326.636H469.791C469.996 326.186 470.303 325.828 470.712 325.562C471.125 325.294 471.674 325.159 472.359 325.159C472.954 325.159 473.475 325.278 473.922 325.517C474.369 325.752 474.715 326.114 474.962 326.602C475.212 327.087 475.337 327.705 475.337 328.455V334H473.996V328.545C473.996 327.852 473.816 327.316 473.456 326.938C473.1 326.555 472.606 326.364 471.973 326.364C471.534 326.364 471.14 326.456 470.791 326.642C470.446 326.828 470.174 327.098 469.973 327.455C469.776 327.811 469.678 328.242 469.678 328.75ZM480.358 334.205C479.805 334.205 479.303 334.1 478.852 333.892C478.402 333.68 478.044 333.375 477.778 332.977C477.513 332.576 477.381 332.091 477.381 331.523C477.381 331.023 477.479 330.617 477.676 330.307C477.873 329.992 478.136 329.746 478.466 329.568C478.795 329.39 479.159 329.258 479.557 329.17C479.958 329.08 480.362 329.008 480.767 328.955C481.297 328.886 481.727 328.835 482.057 328.801C482.39 328.763 482.633 328.701 482.784 328.614C482.939 328.527 483.017 328.375 483.017 328.159V328.114C483.017 327.553 482.864 327.117 482.557 326.807C482.254 326.496 481.794 326.341 481.176 326.341C480.536 326.341 480.034 326.481 479.67 326.761C479.307 327.042 479.051 327.341 478.903 327.659L477.631 327.205C477.858 326.674 478.161 326.261 478.54 325.966C478.922 325.667 479.339 325.458 479.79 325.341C480.244 325.22 480.691 325.159 481.131 325.159C481.411 325.159 481.733 325.193 482.097 325.261C482.464 325.326 482.818 325.46 483.159 325.665C483.504 325.869 483.79 326.178 484.017 326.591C484.244 327.004 484.358 327.557 484.358 328.25V334H483.017V332.818H482.949C482.858 333.008 482.706 333.21 482.494 333.426C482.282 333.642 482 333.826 481.648 333.977C481.295 334.129 480.866 334.205 480.358 334.205ZM480.562 333C481.093 333 481.54 332.896 481.903 332.688C482.271 332.479 482.547 332.21 482.733 331.881C482.922 331.551 483.017 331.205 483.017 330.841V329.614C482.96 329.682 482.835 329.744 482.642 329.801C482.453 329.854 482.233 329.902 481.983 329.943C481.737 329.981 481.496 330.015 481.261 330.045C481.03 330.072 480.843 330.095 480.699 330.114C480.35 330.159 480.025 330.233 479.722 330.335C479.422 330.434 479.18 330.583 478.994 330.784C478.813 330.981 478.722 331.25 478.722 331.591C478.722 332.057 478.894 332.409 479.239 332.648C479.587 332.883 480.028 333 480.562 333ZM490.328 337.455C489.68 337.455 489.124 337.371 488.658 337.205C488.192 337.042 487.804 336.826 487.493 336.557C487.186 336.292 486.942 336.008 486.76 335.705L487.828 334.955C487.949 335.114 488.103 335.295 488.288 335.5C488.474 335.708 488.728 335.888 489.05 336.04C489.375 336.195 489.802 336.273 490.328 336.273C491.033 336.273 491.614 336.102 492.072 335.761C492.531 335.42 492.76 334.886 492.76 334.159V332.386H492.646C492.548 332.545 492.408 332.742 492.226 332.977C492.048 333.208 491.79 333.415 491.453 333.597C491.12 333.775 490.669 333.864 490.101 333.864C489.396 333.864 488.764 333.697 488.203 333.364C487.646 333.03 487.205 332.545 486.879 331.909C486.557 331.273 486.396 330.5 486.396 329.591C486.396 328.697 486.554 327.919 486.868 327.256C487.182 326.589 487.62 326.074 488.18 325.71C488.741 325.343 489.389 325.159 490.124 325.159C490.692 325.159 491.143 325.254 491.476 325.443C491.813 325.629 492.071 325.841 492.249 326.08C492.43 326.314 492.571 326.508 492.669 326.659H492.805V325.273H494.101V334.25C494.101 335 493.93 335.61 493.589 336.08C493.252 336.553 492.798 336.9 492.226 337.119C491.658 337.343 491.025 337.455 490.328 337.455ZM490.283 332.659C490.821 332.659 491.275 332.536 491.646 332.29C492.018 332.044 492.3 331.689 492.493 331.227C492.686 330.765 492.783 330.212 492.783 329.568C492.783 328.939 492.688 328.384 492.499 327.903C492.309 327.422 492.029 327.045 491.658 326.773C491.286 326.5 490.828 326.364 490.283 326.364C489.714 326.364 489.241 326.508 488.862 326.795C488.487 327.083 488.205 327.47 488.016 327.955C487.83 328.439 487.737 328.977 487.737 329.568C487.737 330.174 487.832 330.71 488.021 331.176C488.214 331.638 488.499 332.002 488.874 332.267C489.252 332.528 489.722 332.659 490.283 332.659ZM499.124 334.205C498.571 334.205 498.069 334.1 497.618 333.892C497.167 333.68 496.809 333.375 496.544 332.977C496.279 332.576 496.146 332.091 496.146 331.523C496.146 331.023 496.245 330.617 496.442 330.307C496.639 329.992 496.902 329.746 497.232 329.568C497.561 329.39 497.925 329.258 498.322 329.17C498.724 329.08 499.127 329.008 499.533 328.955C500.063 328.886 500.493 328.835 500.822 328.801C501.156 328.763 501.398 328.701 501.55 328.614C501.705 328.527 501.783 328.375 501.783 328.159V328.114C501.783 327.553 501.629 327.117 501.322 326.807C501.019 326.496 500.559 326.341 499.942 326.341C499.302 326.341 498.8 326.481 498.436 326.761C498.072 327.042 497.817 327.341 497.669 327.659L496.396 327.205C496.624 326.674 496.927 326.261 497.305 325.966C497.688 325.667 498.105 325.458 498.555 325.341C499.01 325.22 499.457 325.159 499.896 325.159C500.177 325.159 500.499 325.193 500.862 325.261C501.23 325.326 501.584 325.46 501.925 325.665C502.269 325.869 502.555 326.178 502.783 326.591C503.01 327.004 503.124 327.557 503.124 328.25V334H501.783V332.818H501.714C501.624 333.008 501.472 333.21 501.26 333.426C501.048 333.642 500.766 333.826 500.413 333.977C500.061 334.129 499.631 334.205 499.124 334.205ZM499.328 333C499.858 333 500.305 332.896 500.669 332.688C501.036 332.479 501.313 332.21 501.499 331.881C501.688 331.551 501.783 331.205 501.783 330.841V329.614C501.726 329.682 501.601 329.744 501.408 329.801C501.218 329.854 500.999 329.902 500.749 329.943C500.502 329.981 500.262 330.015 500.027 330.045C499.796 330.072 499.608 330.095 499.464 330.114C499.116 330.159 498.79 330.233 498.487 330.335C498.188 330.434 497.946 330.583 497.76 330.784C497.578 330.981 497.487 331.25 497.487 331.591C497.487 332.057 497.66 332.409 498.004 332.648C498.353 332.883 498.794 333 499.328 333ZM506.912 322.364V334H505.571V322.364H506.912ZM512.913 334.182C512.125 334.182 511.434 333.994 510.839 333.619C510.249 333.244 509.786 332.72 509.453 332.045C509.124 331.371 508.959 330.583 508.959 329.682C508.959 328.773 509.124 327.979 509.453 327.301C509.786 326.623 510.249 326.097 510.839 325.722C511.434 325.347 512.125 325.159 512.913 325.159C513.701 325.159 514.391 325.347 514.982 325.722C515.576 326.097 516.038 326.623 516.368 327.301C516.701 327.979 516.868 328.773 516.868 329.682C516.868 330.583 516.701 331.371 516.368 332.045C516.038 332.72 515.576 333.244 514.982 333.619C514.391 333.994 513.701 334.182 512.913 334.182ZM512.913 332.977C513.512 332.977 514.004 332.824 514.391 332.517C514.777 332.21 515.063 331.807 515.249 331.307C515.434 330.807 515.527 330.265 515.527 329.682C515.527 329.098 515.434 328.555 515.249 328.051C515.063 327.547 514.777 327.14 514.391 326.83C514.004 326.519 513.512 326.364 512.913 326.364C512.315 326.364 511.822 326.519 511.436 326.83C511.05 327.14 510.764 327.547 510.578 328.051C510.393 328.555 510.3 329.098 510.3 329.682C510.3 330.265 510.393 330.807 510.578 331.307C510.764 331.807 511.05 332.21 511.436 332.517C511.822 332.824 512.315 332.977 512.913 332.977ZM525.739 325.273L522.511 334H521.148L517.92 325.273H519.375L521.784 332.227H521.875L524.284 325.273H525.739ZM534.213 337.068C533.054 337.068 532.029 336.909 531.139 336.591C530.249 336.277 529.501 335.813 528.895 335.199C528.289 334.585 527.83 333.833 527.52 332.943C527.209 332.053 527.054 331.034 527.054 329.886C527.054 328.777 527.211 327.784 527.526 326.909C527.844 326.034 528.304 325.292 528.906 324.682C529.512 324.068 530.247 323.6 531.111 323.278C531.978 322.956 532.959 322.795 534.054 322.795C535.118 322.795 536.05 322.97 536.849 323.318C537.652 323.663 538.323 324.131 538.861 324.722C539.402 325.309 539.808 325.97 540.077 326.705C540.349 327.439 540.486 328.197 540.486 328.977C540.486 329.527 540.459 330.083 540.406 330.648C540.353 331.212 540.241 331.731 540.071 332.205C539.901 332.674 539.637 333.053 539.281 333.341C538.929 333.629 538.452 333.773 537.849 333.773C537.584 333.773 537.293 333.731 536.974 333.648C536.656 333.564 536.374 333.426 536.128 333.233C535.882 333.04 535.736 332.78 535.69 332.455H535.622C535.531 332.674 535.391 332.883 535.202 333.08C535.016 333.277 534.772 333.434 534.469 333.551C534.17 333.669 533.804 333.72 533.372 333.705C532.88 333.686 532.446 333.576 532.071 333.375C531.696 333.17 531.382 332.894 531.128 332.545C530.878 332.193 530.688 331.786 530.56 331.324C530.435 330.858 530.372 330.356 530.372 329.818C530.372 329.307 530.448 328.839 530.599 328.415C530.751 327.991 530.961 327.619 531.23 327.301C531.503 326.983 531.821 326.729 532.185 326.54C532.552 326.347 532.948 326.227 533.372 326.182C533.751 326.144 534.096 326.161 534.406 326.233C534.717 326.301 534.973 326.405 535.173 326.545C535.374 326.682 535.501 326.833 535.554 327H535.622V326.364H536.827V331.5C536.827 331.818 536.916 332.098 537.094 332.341C537.272 332.583 537.531 332.705 537.872 332.705C538.259 332.705 538.554 332.572 538.759 332.307C538.967 332.042 539.109 331.633 539.185 331.08C539.264 330.527 539.304 329.818 539.304 328.955C539.304 328.447 539.234 327.947 539.094 327.455C538.957 326.958 538.749 326.494 538.469 326.062C538.192 325.631 537.842 325.25 537.418 324.92C536.993 324.591 536.495 324.333 535.923 324.148C535.355 323.958 534.709 323.864 533.986 323.864C533.096 323.864 532.298 324.002 531.594 324.278C530.893 324.551 530.296 324.951 529.804 325.477C529.315 326 528.942 326.636 528.685 327.386C528.431 328.133 528.304 328.981 528.304 329.932C528.304 330.898 528.431 331.756 528.685 332.506C528.942 333.256 529.321 333.888 529.821 334.403C530.325 334.919 530.948 335.309 531.69 335.574C532.433 335.843 533.289 335.977 534.259 335.977C534.675 335.977 535.086 335.938 535.491 335.858C535.897 335.778 536.255 335.691 536.565 335.597C536.876 335.502 537.099 335.432 537.236 335.386L537.554 336.432C537.319 336.53 537.012 336.629 536.634 336.727C536.259 336.826 535.857 336.907 535.429 336.972C535.005 337.036 534.599 337.068 534.213 337.068ZM533.554 332.545C534.062 332.545 534.473 332.443 534.787 332.239C535.101 332.034 535.33 331.725 535.474 331.312C535.618 330.9 535.69 330.379 535.69 329.75C535.69 329.114 535.611 328.617 535.452 328.261C535.293 327.905 535.058 327.655 534.747 327.511C534.437 327.367 534.054 327.295 533.599 327.295C533.168 327.295 532.798 327.409 532.491 327.636C532.188 327.86 531.955 328.159 531.793 328.534C531.634 328.905 531.554 329.311 531.554 329.75C531.554 330.235 531.618 330.691 531.747 331.119C531.876 331.544 532.086 331.888 532.378 332.153C532.67 332.415 533.062 332.545 533.554 332.545ZM549.629 325.273L546.402 334H545.038L541.811 325.273H543.266L545.675 332.227H545.766L548.175 325.273H549.629ZM552.649 330.818L552.626 329.159H552.899L556.717 325.273H558.376L554.308 329.386H554.195L552.649 330.818ZM551.399 334V322.364H552.74V334H551.399ZM556.945 334L553.536 329.682L554.49 328.75L558.649 334H556.945ZM561.08 334.091C560.799 334.091 560.559 333.991 560.358 333.79C560.157 333.589 560.057 333.348 560.057 333.068C560.057 332.788 560.157 332.547 560.358 332.347C560.559 332.146 560.799 332.045 561.08 332.045C561.36 332.045 561.6 332.146 561.801 332.347C562.002 332.547 562.102 332.788 562.102 333.068C562.102 333.254 562.055 333.424 561.96 333.58C561.869 333.735 561.746 333.86 561.591 333.955C561.439 334.045 561.269 334.091 561.08 334.091ZM568.054 334.182C567.236 334.182 566.531 333.989 565.94 333.602C565.349 333.216 564.895 332.684 564.577 332.006C564.259 331.328 564.099 330.553 564.099 329.682C564.099 328.795 564.262 328.013 564.588 327.335C564.918 326.653 565.376 326.121 565.963 325.739C566.554 325.352 567.243 325.159 568.031 325.159C568.645 325.159 569.198 325.273 569.69 325.5C570.183 325.727 570.586 326.045 570.901 326.455C571.215 326.864 571.41 327.341 571.486 327.886H570.145C570.043 327.489 569.815 327.136 569.463 326.83C569.115 326.519 568.645 326.364 568.054 326.364C567.531 326.364 567.073 326.5 566.679 326.773C566.289 327.042 565.984 327.422 565.764 327.915C565.548 328.403 565.44 328.977 565.44 329.636C565.44 330.311 565.546 330.898 565.759 331.398C565.974 331.898 566.277 332.286 566.668 332.562C567.062 332.839 567.524 332.977 568.054 332.977C568.402 332.977 568.719 332.917 569.003 332.795C569.287 332.674 569.527 332.5 569.724 332.273C569.921 332.045 570.062 331.773 570.145 331.455H571.486C571.41 331.97 571.223 332.434 570.923 332.847C570.628 333.256 570.236 333.581 569.747 333.824C569.262 334.062 568.698 334.182 568.054 334.182ZM576.991 334.182C576.204 334.182 575.512 333.994 574.918 333.619C574.327 333.244 573.865 332.72 573.531 332.045C573.202 331.371 573.037 330.583 573.037 329.682C573.037 328.773 573.202 327.979 573.531 327.301C573.865 326.623 574.327 326.097 574.918 325.722C575.512 325.347 576.204 325.159 576.991 325.159C577.779 325.159 578.469 325.347 579.06 325.722C579.654 326.097 580.116 326.623 580.446 327.301C580.779 327.979 580.946 328.773 580.946 329.682C580.946 330.583 580.779 331.371 580.446 332.045C580.116 332.72 579.654 333.244 579.06 333.619C578.469 333.994 577.779 334.182 576.991 334.182ZM576.991 332.977C577.59 332.977 578.082 332.824 578.469 332.517C578.855 332.21 579.141 331.807 579.327 331.307C579.512 330.807 579.605 330.265 579.605 329.682C579.605 329.098 579.512 328.555 579.327 328.051C579.141 327.547 578.855 327.14 578.469 326.83C578.082 326.519 577.59 326.364 576.991 326.364C576.393 326.364 575.901 326.519 575.514 326.83C575.128 327.14 574.842 327.547 574.656 328.051C574.471 328.555 574.378 329.098 574.378 329.682C574.378 330.265 574.471 330.807 574.656 331.307C574.842 331.807 575.128 332.21 575.514 332.517C575.901 332.824 576.393 332.977 576.991 332.977ZM582.993 334V325.273H584.288V326.636H584.402C584.584 326.17 584.877 325.809 585.283 325.551C585.688 325.29 586.175 325.159 586.743 325.159C587.319 325.159 587.798 325.29 588.18 325.551C588.567 325.809 588.868 326.17 589.084 326.636H589.175C589.398 326.186 589.733 325.828 590.18 325.562C590.627 325.294 591.163 325.159 591.788 325.159C592.569 325.159 593.207 325.403 593.703 325.892C594.199 326.377 594.447 327.133 594.447 328.159V334H593.107V328.159C593.107 327.515 592.93 327.055 592.578 326.778C592.226 326.502 591.811 326.364 591.334 326.364C590.72 326.364 590.245 326.549 589.908 326.92C589.571 327.288 589.402 327.754 589.402 328.318V334H588.038V328.023C588.038 327.527 587.877 327.127 587.555 326.824C587.233 326.517 586.819 326.364 586.311 326.364C585.963 326.364 585.637 326.456 585.334 326.642C585.035 326.828 584.792 327.085 584.607 327.415C584.425 327.741 584.334 328.117 584.334 328.545V334H582.993Z" fill="black"/>
<path d="M420.409 389.227L419.205 389.568C419.129 389.367 419.017 389.172 418.869 388.983C418.725 388.79 418.528 388.631 418.278 388.506C418.028 388.381 417.708 388.318 417.318 388.318C416.784 388.318 416.339 388.441 415.983 388.688C415.631 388.93 415.455 389.239 415.455 389.614C415.455 389.947 415.576 390.21 415.818 390.403C416.061 390.597 416.439 390.758 416.955 390.886L418.25 391.205C419.03 391.394 419.612 391.684 419.994 392.074C420.377 392.46 420.568 392.958 420.568 393.568C420.568 394.068 420.424 394.515 420.136 394.909C419.852 395.303 419.455 395.614 418.943 395.841C418.432 396.068 417.837 396.182 417.159 396.182C416.269 396.182 415.532 395.989 414.949 395.602C414.366 395.216 413.996 394.652 413.841 393.909L415.114 393.591C415.235 394.061 415.464 394.413 415.801 394.648C416.142 394.883 416.587 395 417.136 395C417.761 395 418.258 394.867 418.625 394.602C418.996 394.333 419.182 394.011 419.182 393.636C419.182 393.333 419.076 393.08 418.864 392.875C418.652 392.667 418.326 392.511 417.886 392.409L416.432 392.068C415.633 391.879 415.045 391.585 414.67 391.188C414.299 390.786 414.114 390.284 414.114 389.682C414.114 389.189 414.252 388.754 414.528 388.375C414.809 387.996 415.189 387.699 415.67 387.483C416.155 387.267 416.705 387.159 417.318 387.159C418.182 387.159 418.86 387.348 419.352 387.727C419.848 388.106 420.201 388.606 420.409 389.227ZM423.928 384.364V396H422.587V384.364H423.928ZM428.952 396.205C428.399 396.205 427.897 396.1 427.446 395.892C426.995 395.68 426.637 395.375 426.372 394.977C426.107 394.576 425.974 394.091 425.974 393.523C425.974 393.023 426.073 392.617 426.27 392.307C426.467 391.992 426.73 391.746 427.06 391.568C427.389 391.39 427.753 391.258 428.151 391.17C428.552 391.08 428.955 391.008 429.361 390.955C429.891 390.886 430.321 390.835 430.651 390.801C430.984 390.763 431.226 390.701 431.378 390.614C431.533 390.527 431.611 390.375 431.611 390.159V390.114C431.611 389.553 431.457 389.117 431.151 388.807C430.848 388.496 430.387 388.341 429.77 388.341C429.13 388.341 428.628 388.481 428.264 388.761C427.901 389.042 427.645 389.341 427.497 389.659L426.224 389.205C426.452 388.674 426.755 388.261 427.134 387.966C427.516 387.667 427.933 387.458 428.384 387.341C428.838 387.22 429.285 387.159 429.724 387.159C430.005 387.159 430.327 387.193 430.69 387.261C431.058 387.326 431.412 387.46 431.753 387.665C432.098 387.869 432.384 388.178 432.611 388.591C432.838 389.004 432.952 389.557 432.952 390.25V396H431.611V394.818H431.543C431.452 395.008 431.3 395.21 431.088 395.426C430.876 395.642 430.594 395.826 430.241 395.977C429.889 396.129 429.459 396.205 428.952 396.205ZM429.156 395C429.687 395 430.134 394.896 430.497 394.688C430.865 394.479 431.141 394.21 431.327 393.881C431.516 393.551 431.611 393.205 431.611 392.841V391.614C431.554 391.682 431.429 391.744 431.236 391.801C431.046 391.854 430.827 391.902 430.577 391.943C430.33 391.981 430.09 392.015 429.855 392.045C429.624 392.072 429.437 392.095 429.293 392.114C428.944 392.159 428.618 392.233 428.315 392.335C428.016 392.434 427.774 392.583 427.588 392.784C427.406 392.981 427.315 393.25 427.315 393.591C427.315 394.057 427.488 394.409 427.832 394.648C428.181 394.883 428.622 395 429.156 395ZM442.223 387.273L438.996 396H437.632L434.405 387.273H435.859L438.268 394.227H438.359L440.768 387.273H442.223ZM446.295 396.205C445.742 396.205 445.241 396.1 444.79 395.892C444.339 395.68 443.981 395.375 443.716 394.977C443.451 394.576 443.318 394.091 443.318 393.523C443.318 393.023 443.417 392.617 443.614 392.307C443.811 391.992 444.074 391.746 444.403 391.568C444.733 391.39 445.097 391.258 445.494 391.17C445.896 391.08 446.299 391.008 446.705 390.955C447.235 390.886 447.665 390.835 447.994 390.801C448.328 390.763 448.57 390.701 448.722 390.614C448.877 390.527 448.955 390.375 448.955 390.159V390.114C448.955 389.553 448.801 389.117 448.494 388.807C448.191 388.496 447.731 388.341 447.114 388.341C446.473 388.341 445.972 388.481 445.608 388.761C445.244 389.042 444.989 389.341 444.841 389.659L443.568 389.205C443.795 388.674 444.098 388.261 444.477 387.966C444.86 387.667 445.277 387.458 445.727 387.341C446.182 387.22 446.629 387.159 447.068 387.159C447.348 387.159 447.67 387.193 448.034 387.261C448.402 387.326 448.756 387.46 449.097 387.665C449.441 387.869 449.727 388.178 449.955 388.591C450.182 389.004 450.295 389.557 450.295 390.25V396H448.955V394.818H448.886C448.795 395.008 448.644 395.21 448.432 395.426C448.22 395.642 447.938 395.826 447.585 395.977C447.233 396.129 446.803 396.205 446.295 396.205ZM446.5 395C447.03 395 447.477 394.896 447.841 394.688C448.208 394.479 448.485 394.21 448.67 393.881C448.86 393.551 448.955 393.205 448.955 392.841V391.614C448.898 391.682 448.773 391.744 448.58 391.801C448.39 391.854 448.17 391.902 447.92 391.943C447.674 391.981 447.434 392.015 447.199 392.045C446.968 392.072 446.78 392.095 446.636 392.114C446.288 392.159 445.962 392.233 445.659 392.335C445.36 392.434 445.117 392.583 444.932 392.784C444.75 392.981 444.659 393.25 444.659 393.591C444.659 394.057 444.831 394.409 445.176 394.648C445.525 394.883 445.966 395 446.5 395ZM456.357 396.159C455.69 396.159 455.089 396.027 454.555 395.761C454.021 395.496 453.593 395.133 453.271 394.67C452.949 394.208 452.773 393.682 452.743 393.091H454.107C454.16 393.617 454.398 394.053 454.822 394.398C455.25 394.739 455.762 394.909 456.357 394.909C456.834 394.909 457.258 394.797 457.629 394.574C458.004 394.35 458.298 394.044 458.51 393.653C458.726 393.259 458.834 392.814 458.834 392.318C458.834 391.811 458.722 391.358 458.499 390.96C458.279 390.559 457.976 390.242 457.589 390.011C457.203 389.78 456.762 389.663 456.266 389.659C455.91 389.655 455.544 389.71 455.169 389.824C454.794 389.934 454.485 390.076 454.243 390.25L452.925 390.091L453.629 384.364H459.675V385.614H454.811L454.402 389.045H454.47C454.709 388.856 455.008 388.699 455.368 388.574C455.728 388.449 456.103 388.386 456.493 388.386C457.205 388.386 457.839 388.557 458.396 388.898C458.957 389.235 459.396 389.697 459.714 390.284C460.036 390.871 460.197 391.542 460.197 392.295C460.197 393.038 460.031 393.701 459.697 394.284C459.368 394.864 458.913 395.322 458.334 395.659C457.754 395.992 457.095 396.159 456.357 396.159ZM466.545 384.364V396H465.136V385.841H465.068L462.227 387.727V386.295L465.136 384.364H466.545Z" fill="black"/>
<path d="M428.773 450H427.364C427.28 449.595 427.134 449.239 426.926 448.932C426.722 448.625 426.472 448.367 426.176 448.159C425.884 447.947 425.561 447.788 425.205 447.682C424.848 447.576 424.477 447.523 424.091 447.523C423.386 447.523 422.748 447.701 422.176 448.057C421.608 448.413 421.155 448.938 420.818 449.631C420.485 450.324 420.318 451.174 420.318 452.182C420.318 453.189 420.485 454.04 420.818 454.733C421.155 455.426 421.608 455.951 422.176 456.307C422.748 456.663 423.386 456.841 424.091 456.841C424.477 456.841 424.848 456.788 425.205 456.682C425.561 456.576 425.884 456.419 426.176 456.21C426.472 455.998 426.722 455.739 426.926 455.432C427.134 455.121 427.28 454.765 427.364 454.364H428.773C428.667 454.958 428.473 455.491 428.193 455.96C427.913 456.43 427.564 456.83 427.148 457.159C426.731 457.485 426.263 457.733 425.744 457.903C425.229 458.074 424.678 458.159 424.091 458.159C423.098 458.159 422.216 457.917 421.443 457.432C420.67 456.947 420.063 456.258 419.619 455.364C419.176 454.47 418.955 453.409 418.955 452.182C418.955 450.955 419.176 449.894 419.619 449C420.063 448.106 420.67 447.417 421.443 446.932C422.216 446.447 423.098 446.205 424.091 446.205C424.678 446.205 425.229 446.29 425.744 446.46C426.263 446.631 426.731 446.881 427.148 447.21C427.564 447.536 427.913 447.934 428.193 448.403C428.473 448.869 428.667 449.402 428.773 450ZM430.095 458V456.75H430.413C430.675 456.75 430.893 456.699 431.067 456.597C431.241 456.491 431.381 456.307 431.487 456.045C431.597 455.78 431.68 455.413 431.737 454.943C431.798 454.47 431.841 453.867 431.868 453.136L432.027 449.273H437.845V458H436.504V450.523H433.3L433.163 453.636C433.133 454.352 433.069 454.983 432.97 455.528C432.875 456.07 432.73 456.525 432.533 456.892C432.339 457.259 432.082 457.536 431.76 457.722C431.438 457.907 431.035 458 430.55 458H430.095ZM442.874 458.205C442.321 458.205 441.819 458.1 441.368 457.892C440.917 457.68 440.559 457.375 440.294 456.977C440.029 456.576 439.896 456.091 439.896 455.523C439.896 455.023 439.995 454.617 440.192 454.307C440.389 453.992 440.652 453.746 440.982 453.568C441.311 453.39 441.675 453.258 442.072 453.17C442.474 453.08 442.877 453.008 443.283 452.955C443.813 452.886 444.243 452.835 444.572 452.801C444.906 452.763 445.148 452.701 445.3 452.614C445.455 452.527 445.533 452.375 445.533 452.159V452.114C445.533 451.553 445.379 451.117 445.072 450.807C444.769 450.496 444.309 450.341 443.692 450.341C443.052 450.341 442.55 450.481 442.186 450.761C441.822 451.042 441.567 451.341 441.419 451.659L440.146 451.205C440.374 450.674 440.677 450.261 441.055 449.966C441.438 449.667 441.855 449.458 442.305 449.341C442.76 449.22 443.207 449.159 443.646 449.159C443.927 449.159 444.249 449.193 444.612 449.261C444.98 449.326 445.334 449.46 445.675 449.665C446.019 449.869 446.305 450.178 446.533 450.591C446.76 451.004 446.874 451.557 446.874 452.25V458H445.533V456.818H445.464C445.374 457.008 445.222 457.21 445.01 457.426C444.798 457.642 444.516 457.826 444.163 457.977C443.811 458.129 443.381 458.205 442.874 458.205ZM443.078 457C443.608 457 444.055 456.896 444.419 456.688C444.786 456.479 445.063 456.21 445.249 455.881C445.438 455.551 445.533 455.205 445.533 454.841V453.614C445.476 453.682 445.351 453.744 445.158 453.801C444.968 453.854 444.749 453.902 444.499 453.943C444.252 453.981 444.012 454.015 443.777 454.045C443.546 454.072 443.358 454.095 443.214 454.114C442.866 454.159 442.54 454.233 442.237 454.335C441.938 454.434 441.696 454.583 441.51 454.784C441.328 454.981 441.237 455.25 441.237 455.591C441.237 456.057 441.41 456.409 441.754 456.648C442.103 456.883 442.544 457 443.078 457ZM449.321 458V449.273H452.889C453.829 449.273 454.575 449.485 455.128 449.909C455.681 450.333 455.957 450.894 455.957 451.591C455.957 452.121 455.8 452.532 455.486 452.824C455.171 453.112 454.768 453.307 454.276 453.409C454.598 453.455 454.91 453.568 455.213 453.75C455.52 453.932 455.774 454.182 455.974 454.5C456.175 454.814 456.276 455.201 456.276 455.659C456.276 456.106 456.162 456.506 455.935 456.858C455.707 457.21 455.382 457.489 454.957 457.693C454.533 457.898 454.026 458 453.435 458H449.321ZM450.594 456.773H453.435C453.897 456.773 454.259 456.663 454.52 456.443C454.781 456.223 454.912 455.924 454.912 455.545C454.912 455.095 454.781 454.741 454.52 454.483C454.259 454.222 453.897 454.091 453.435 454.091H450.594V456.773ZM450.594 452.932H452.889C453.249 452.932 453.558 452.883 453.815 452.784C454.073 452.682 454.27 452.538 454.406 452.352C454.546 452.163 454.616 451.939 454.616 451.682C454.616 451.314 454.463 451.027 454.156 450.818C453.849 450.606 453.427 450.5 452.889 450.5H450.594V452.932ZM460.874 458.205C460.321 458.205 459.819 458.1 459.368 457.892C458.917 457.68 458.559 457.375 458.294 456.977C458.029 456.576 457.896 456.091 457.896 455.523C457.896 455.023 457.995 454.617 458.192 454.307C458.389 453.992 458.652 453.746 458.982 453.568C459.311 453.39 459.675 453.258 460.072 453.17C460.474 453.08 460.877 453.008 461.283 452.955C461.813 452.886 462.243 452.835 462.572 452.801C462.906 452.763 463.148 452.701 463.3 452.614C463.455 452.527 463.533 452.375 463.533 452.159V452.114C463.533 451.553 463.379 451.117 463.072 450.807C462.769 450.496 462.309 450.341 461.692 450.341C461.052 450.341 460.55 450.481 460.186 450.761C459.822 451.042 459.567 451.341 459.419 451.659L458.146 451.205C458.374 450.674 458.677 450.261 459.055 449.966C459.438 449.667 459.855 449.458 460.305 449.341C460.76 449.22 461.207 449.159 461.646 449.159C461.927 449.159 462.249 449.193 462.612 449.261C462.98 449.326 463.334 449.46 463.675 449.665C464.019 449.869 464.305 450.178 464.533 450.591C464.76 451.004 464.874 451.557 464.874 452.25V458H463.533V456.818H463.464C463.374 457.008 463.222 457.21 463.01 457.426C462.798 457.642 462.516 457.826 462.163 457.977C461.811 458.129 461.381 458.205 460.874 458.205ZM461.078 457C461.608 457 462.055 456.896 462.419 456.688C462.786 456.479 463.063 456.21 463.249 455.881C463.438 455.551 463.533 455.205 463.533 454.841V453.614C463.476 453.682 463.351 453.744 463.158 453.801C462.968 453.854 462.749 453.902 462.499 453.943C462.252 453.981 462.012 454.015 461.777 454.045C461.546 454.072 461.358 454.095 461.214 454.114C460.866 454.159 460.54 454.233 460.237 454.335C459.938 454.434 459.696 454.583 459.51 454.784C459.328 454.981 459.237 455.25 459.237 455.591C459.237 456.057 459.41 456.409 459.754 456.648C460.103 456.883 460.544 457 461.078 457Z" fill="black"/>
</svg>
